<?xml version="1.0" encoding="utf-8"?>
<!-- Generator: Adobe Illustrator 15.1.0, SVG Export Plug-In . SVG Version: 6.00 Build 0)  -->
<!DOCTYPE svg PUBLIC "-//W3C//DTD SVG 1.1//EN" "http://www.w3.org/Graphics/SVG/1.1/DTD/svg11.dtd">
<svg version="1.1" id="PTBR_Download_on_the" xmlns="http://www.w3.org/2000/svg" xmlns:xlink="http://www.w3.org/1999/xlink"
	 x="0px" y="0px" width="135px" height="40px" viewBox="0 0 135 40" enable-background="new 0 0 135 40" xml:space="preserve">
<g>
	<rect x="-9.222" y="-9.75" fill="#FFFFFF" fill-opacity="0" width="154.028" height="59.625"/>
	<g>
		<path d="M129.9,39.938H5.684c-2.732,0-4.968-2.237-4.968-4.969V5.156c0-2.732,2.236-4.969,4.968-4.969H129.9
			c2.734,0,4.969,2.237,4.969,4.969V34.97C134.869,37.701,132.635,39.938,129.9,39.938z"/>
	</g>
	<g>
		<g>
			<path fill="#A6A6A6" d="M129.9,0.982c2.304,0,4.176,1.873,4.176,4.174V34.97c0,2.301-1.872,4.174-4.176,4.174H5.684
				c-2.301,0-4.174-1.873-4.174-4.174V5.156c0-2.301,1.873-4.174,4.174-4.174H129.9 M129.9,0.188H5.684
				c-2.732,0-4.968,2.237-4.968,4.969V34.97c0,2.731,2.236,4.969,4.968,4.969H129.9c2.734,0,4.969-2.237,4.969-4.969V5.156
				C134.869,2.424,132.635,0.188,129.9,0.188L129.9,0.188z"/>
		</g>
	</g>
	<path fill="#FFFFFF" d="M68.425,21.801c-2.338,0-4.243,1.781-4.243,4.228c0,2.435,1.905,4.227,4.243,4.227s4.245-1.792,4.245-4.227
		C72.666,23.582,70.763,21.801,68.425,21.801z M68.425,28.591c-1.282,0-2.385-1.056-2.385-2.561c0-1.521,1.104-2.563,2.385-2.563
		c1.279,0,2.386,1.042,2.386,2.563C70.811,27.535,69.704,28.591,68.425,28.591z M59.169,21.801c-2.337,0-4.243,1.781-4.243,4.228
		c0,2.435,1.906,4.227,4.243,4.227c2.337,0,4.243-1.792,4.243-4.227C63.413,23.582,61.507,21.801,59.169,21.801z M59.169,28.591
		c-1.281,0-2.385-1.056-2.385-2.561c0-1.521,1.104-2.563,2.385-2.563c1.28,0,2.385,1.042,2.385,2.563
		C61.556,27.535,60.45,28.591,59.169,28.591z M48.16,23.099v1.795h4.292c-0.128,1.008-0.463,1.744-0.977,2.257
		c-0.624,0.623-1.602,1.313-3.315,1.313c-2.642,0-4.707-2.13-4.707-4.771c0-2.64,2.065-4.77,4.707-4.77
		c1.426,0,2.465,0.561,3.235,1.28l1.264-1.266c-1.072-1.023-2.498-1.808-4.499-1.808c-3.618,0-6.66,2.945-6.66,6.563
		c0,3.619,3.042,6.563,6.66,6.563c1.952,0,3.427-0.641,4.578-1.839c1.186-1.188,1.554-2.852,1.554-4.196
		c0-0.416-0.032-0.801-0.097-1.121H48.16L48.16,23.099z M93.186,24.492c-0.353-0.945-1.426-2.691-3.619-2.691
		c-2.177,0-3.986,1.715-3.986,4.228c0,2.37,1.793,4.227,4.194,4.227c1.937,0,3.059-1.184,3.522-1.872l-1.442-0.963
		c-0.477,0.704-1.137,1.169-2.08,1.169c-0.942,0-1.618-0.431-2.049-1.28l5.65-2.337L93.186,24.492z M87.421,25.901
		c-0.048-1.633,1.266-2.464,2.212-2.464c0.734,0,1.358,0.366,1.567,0.895L87.421,25.901z M82.827,30h1.857V17.578h-1.857V30z
		 M79.783,22.748h-0.063c-0.416-0.497-1.219-0.947-2.225-0.947c-2.116,0-4.051,1.859-4.051,4.246c0,2.369,1.935,4.211,4.051,4.211
		c1.008,0,1.809-0.448,2.225-0.963h0.063v0.611c0,1.616-0.863,2.479-2.256,2.479c-1.137,0-1.841-0.814-2.129-1.504l-1.618,0.673
		c0.464,1.12,1.696,2.496,3.747,2.496c2.176,0,4.019-1.28,4.019-4.403v-7.586h-1.76v0.687H79.783z M77.655,28.591
		c-1.281,0-2.353-1.071-2.353-2.544c0-1.49,1.071-2.58,2.353-2.58c1.265,0,2.256,1.09,2.256,2.58
		C79.911,27.52,78.92,28.591,77.655,28.591z M101.885,17.578h-4.445V30h1.854v-4.708h2.589c2.055,0,4.076-1.486,4.076-3.857
		C105.959,19.065,103.939,17.578,101.885,17.578z M101.931,23.565h-2.637v-4.259h2.637c1.387,0,2.173,1.146,2.173,2.128
		C104.104,22.397,103.317,23.565,101.931,23.565z M113.392,21.781c-1.342,0-2.732,0.591-3.309,1.9l1.646,0.688
		c0.351-0.688,1.007-0.911,1.695-0.911c0.958,0,1.935,0.575,1.949,1.597v0.13c-0.336-0.194-1.056-0.48-1.935-0.48
		c-1.773,0-3.58,0.975-3.58,2.798c0,1.66,1.456,2.731,3.084,2.731c1.247,0,1.934-0.558,2.364-1.216h0.064v0.962h1.79v-4.765
		C117.161,23.011,115.515,21.781,113.392,21.781z M113.167,28.587c-0.608,0-1.455-0.304-1.455-1.054
		c0-0.957,1.058-1.326,1.966-1.326c0.815,0,1.198,0.176,1.695,0.416C115.229,27.773,114.236,28.587,113.167,28.587z M123.684,22.051
		l-2.128,5.387h-0.06l-2.208-5.387h-1.999l3.311,7.529l-1.886,4.188h1.933l5.1-11.717H123.684z M106.983,30h1.853V17.578h-1.853V30z
		"/>
	<g>
		
			<linearGradient id="SVGID_1_" gradientUnits="userSpaceOnUse" x1="43.2808" y1="404.4443" x2="26.6037" y2="421.1214" gradientTransform="matrix(1 0 0 1 -20.8999 -395.5996)">
			<stop  offset="0" style="stop-color:#00A0FF"/>
			<stop  offset="0.0066" style="stop-color:#00A1FF"/>
			<stop  offset="0.2601" style="stop-color:#00BEFF"/>
			<stop  offset="0.5122" style="stop-color:#00D2FF"/>
			<stop  offset="0.7604" style="stop-color:#00DFFF"/>
			<stop  offset="1" style="stop-color:#00E3FF"/>
		</linearGradient>
		<path fill="url(#SVGID_1_)" d="M11.087,7.679c-0.29,0.305-0.461,0.78-0.461,1.396v21.978c0,0.616,0.171,1.091,0.461,1.396
			l0.073,0.074l12.312-12.314v-0.146v-0.143L11.16,7.606L11.087,7.679z"/>
		
			<linearGradient id="SVGID_2_" gradientUnits="userSpaceOnUse" x1="55.2373" y1="415.665" x2="31.1925" y2="415.665" gradientTransform="matrix(1 0 0 1 -20.8999 -395.5996)">
			<stop  offset="0" style="stop-color:#FFE000"/>
			<stop  offset="0.4087" style="stop-color:#FFBD00"/>
			<stop  offset="0.7754" style="stop-color:#FFA500"/>
			<stop  offset="1" style="stop-color:#FF9C00"/>
		</linearGradient>
		<path fill="url(#SVGID_2_)" d="M27.574,24.314l-4.103-4.106v-0.146v-0.143l4.104-4.104l0.091,0.052l4.864,2.763
			c1.388,0.79,1.388,2.079,0,2.868l-4.864,2.765L27.574,24.314z"/>
		
			<linearGradient id="SVGID_3_" gradientUnits="userSpaceOnUse" x1="46.2891" y1="417.9424" x2="23.672" y2="440.5595" gradientTransform="matrix(1 0 0 1 -20.8999 -395.5996)">
			<stop  offset="0" style="stop-color:#FF3A44"/>
			<stop  offset="1" style="stop-color:#C31162"/>
		</linearGradient>
		<path fill="url(#SVGID_3_)" d="M27.667,24.263l-4.196-4.2L11.087,32.448c0.457,0.484,1.213,0.544,2.065,0.063L27.667,24.263"/>
		
			<linearGradient id="SVGID_4_" gradientUnits="userSpaceOnUse" x1="28.8682" y1="395.9648" x2="38.9663" y2="406.063" gradientTransform="matrix(1 0 0 1 -20.8999 -395.5996)">
			<stop  offset="0" style="stop-color:#32A071"/>
			<stop  offset="0.0685" style="stop-color:#2DA771"/>
			<stop  offset="0.4762" style="stop-color:#15CF74"/>
			<stop  offset="0.8009" style="stop-color:#06E775"/>
			<stop  offset="1" style="stop-color:#00F076"/>
		</linearGradient>
		<path fill="url(#SVGID_4_)" d="M27.667,15.866L13.152,7.619C12.3,7.134,11.544,7.194,11.087,7.68l12.384,12.385L27.667,15.866z"/>
		<g>
			<path opacity="0.2" enable-background="new    " d="M27.576,24.169l-14.424,8.197c-0.807,0.456-1.529,0.426-1.992,0.01l0,0
				l-0.073,0.074l0,0l0.073,0.072l0,0c0.463,0.417,1.185,0.448,1.992-0.012l14.515-8.248L27.576,24.169z"/>
			<path opacity="0.12" enable-background="new    " d="M11.087,32.304c-0.29-0.308-0.461-0.781-0.461-1.396v0.145
				c0,0.614,0.171,1.091,0.461,1.396l0.073-0.072L11.087,32.304z"/>
		</g>
		<path opacity="0.12" enable-background="new    " d="M32.531,21.353l-4.955,2.816l0.091,0.094l4.864-2.765
			c0.694-0.395,1.041-0.913,1.041-1.433l0,0C33.513,20.534,33.16,20.994,32.531,21.353z"/>
		<path opacity="0.25" fill="#FFFFFF" enable-background="new    " d="M13.152,7.763l19.379,11.011
			c0.63,0.357,0.982,0.818,1.041,1.288l0,0c0-0.52-0.347-1.039-1.041-1.434L13.152,7.619c-1.389-0.79-2.526-0.134-2.526,1.457V9.22
			C10.626,7.63,11.763,6.975,13.152,7.763z"/>
	</g>
</g>
<g>
	<path fill="#FFFFFF" stroke="#FFFFFF" stroke-width="0.2" stroke-miterlimit="10" d="M41.794,13.107V7.144h1.824
		c0.916,0,1.649,0.276,2.2,0.83c0.549,0.552,0.823,1.268,0.823,2.152c0,0.882-0.274,1.599-0.823,2.151
		c-0.551,0.553-1.284,0.831-2.2,0.831H41.794z M42.56,12.373h1.058c0.688,0,1.234-0.196,1.636-0.59
		c0.402-0.394,0.604-0.947,0.604-1.657c0-0.704-0.201-1.256-0.604-1.654c-0.402-0.396-0.948-0.594-1.636-0.594H42.56V12.373z"/>
	<path fill="#FFFFFF" stroke="#FFFFFF" stroke-width="0.2" stroke-miterlimit="10" d="M47.716,13.107V7.144h0.767v5.963H47.716z"/>
	<path fill="#FFFFFF" stroke="#FFFFFF" stroke-width="0.2" stroke-miterlimit="10" d="M51.529,13.239
		c-0.434,0-0.855-0.141-1.269-0.423c-0.414-0.285-0.684-0.681-0.811-1.193l0.699-0.282c0.083,0.328,0.253,0.602,0.512,0.828
		c0.259,0.225,0.549,0.337,0.87,0.337c0.334,0,0.62-0.088,0.855-0.263c0.236-0.175,0.352-0.413,0.352-0.712
		c0-0.333-0.116-0.591-0.352-0.77c-0.235-0.181-0.609-0.349-1.12-0.504c-0.529-0.167-0.929-0.381-1.2-0.646
		c-0.272-0.262-0.409-0.6-0.409-1.012c0-0.427,0.171-0.797,0.51-1.116c0.338-0.316,0.779-0.475,1.323-0.475
		c0.505,0,0.917,0.128,1.232,0.38s0.521,0.529,0.617,0.829l-0.7,0.291c-0.05-0.188-0.173-0.364-0.371-0.524
		c-0.196-0.161-0.451-0.241-0.763-0.241c-0.294,0-0.545,0.082-0.753,0.246c-0.208,0.164-0.312,0.368-0.312,0.611
		c0,0.223,0.096,0.409,0.287,0.563c0.191,0.152,0.474,0.289,0.846,0.412c0.293,0.095,0.54,0.185,0.737,0.276
		c0.197,0.088,0.397,0.207,0.599,0.354c0.203,0.147,0.355,0.33,0.458,0.549c0.103,0.219,0.154,0.473,0.154,0.762
		c0,0.29-0.06,0.546-0.18,0.774c-0.119,0.228-0.278,0.409-0.476,0.542c-0.197,0.133-0.409,0.234-0.637,0.304
		C52,13.204,51.768,13.239,51.529,13.239z"/>
	<path fill="#FFFFFF" stroke="#FFFFFF" stroke-width="0.2" stroke-miterlimit="10" d="M55.384,13.107h-0.766V7.144h2.032
		c0.504,0,0.942,0.167,1.311,0.503c0.37,0.337,0.555,0.76,0.555,1.271c0,0.512-0.185,0.934-0.555,1.269
		c-0.369,0.335-0.807,0.503-1.311,0.503h-1.266V13.107z M55.384,9.958h1.284c0.321,0,0.58-0.106,0.773-0.323
		c0.195-0.216,0.291-0.456,0.291-0.717c0-0.261-0.096-0.5-0.291-0.717c-0.194-0.217-0.452-0.325-0.773-0.325h-1.284V9.958z"/>
	<path fill="#FFFFFF" stroke="#FFFFFF" stroke-width="0.2" stroke-miterlimit="10" d="M64.358,12.336
		c-0.586,0.602-1.316,0.903-2.188,0.903c-0.87,0-1.599-0.302-2.185-0.903c-0.585-0.603-0.878-1.34-0.878-2.21
		c0-0.872,0.293-1.61,0.878-2.211C60.571,7.311,61.3,7.01,62.17,7.01c0.866,0,1.594,0.303,2.183,0.909
		c0.589,0.604,0.882,1.34,0.882,2.207C65.235,10.996,64.942,11.733,64.358,12.336z M60.551,11.836c0.442,0.447,0.98,0.67,1.619,0.67
		c0.639,0,1.18-0.225,1.62-0.67c0.442-0.447,0.664-1.019,0.664-1.711c0-0.694-0.222-1.264-0.664-1.712
		c-0.44-0.447-0.981-0.669-1.62-0.669c-0.639,0-1.177,0.223-1.619,0.669c-0.44,0.448-0.662,1.018-0.662,1.712
		C59.89,10.818,60.111,11.389,60.551,11.836z"/>
	<path fill="#FFFFFF" stroke="#FFFFFF" stroke-width="0.2" stroke-miterlimit="10" d="M66.312,13.107V7.144h0.931l2.898,4.638h0.034
		l-0.034-1.149V7.144h0.768v5.963h-0.801l-3.032-4.865h-0.032l0.032,1.149v3.716H66.312z"/>
	<path fill="#FFFFFF" stroke="#FFFFFF" stroke-width="0.2" stroke-miterlimit="10" d="M72.272,13.107V7.144h0.766v5.963H72.272z
		 M72.989,6.677h-0.667l0.435-1.065h0.835L72.989,6.677z"/>
	<path fill="#FFFFFF" stroke="#FFFFFF" stroke-width="0.2" stroke-miterlimit="10" d="M75.878,13.107L73.78,7.144h0.85l1.635,4.838
		h0.031l1.697-4.838h0.85l-2.165,5.963H75.878z"/>
	<path fill="#FFFFFF" stroke="#FFFFFF" stroke-width="0.2" stroke-miterlimit="10" d="M83.19,7.876h-2.714v1.89h2.447v0.716h-2.447
		v1.891h2.714v0.734h-3.48V7.144h3.48V7.876z"/>
	<path fill="#FFFFFF" stroke="#FFFFFF" stroke-width="0.2" stroke-miterlimit="10" d="M84.391,13.107V7.144h0.766v5.229h2.58v0.734
		H84.391z"/>
	<path fill="#FFFFFF" stroke="#FFFFFF" stroke-width="0.2" stroke-miterlimit="10" d="M90.703,13.107V7.144h0.932l2.899,4.638h0.03
		l-0.03-1.149V7.144h0.764v5.963h-0.799l-3.033-4.865h-0.032l0.032,1.149v3.716H90.703z"/>
	<path fill="#FFFFFF" stroke="#FFFFFF" stroke-width="0.2" stroke-miterlimit="10" d="M101.539,12.336
		c-0.585,0.602-1.313,0.903-2.186,0.903c-0.87,0-1.601-0.302-2.186-0.903c-0.586-0.603-0.879-1.34-0.879-2.21
		c0-0.872,0.293-1.61,0.879-2.211c0.585-0.603,1.315-0.904,2.186-0.904c0.867,0,1.594,0.303,2.182,0.909
		c0.588,0.604,0.882,1.34,0.882,2.207C102.417,10.996,102.125,11.733,101.539,12.336z M97.732,11.836
		c0.44,0.447,0.981,0.67,1.621,0.67c0.639,0,1.177-0.225,1.617-0.67c0.444-0.447,0.665-1.019,0.665-1.711
		c0-0.694-0.221-1.264-0.665-1.712c-0.44-0.447-0.979-0.669-1.617-0.669c-0.64,0-1.181,0.223-1.621,0.669
		c-0.439,0.448-0.662,1.018-0.662,1.712C97.07,10.818,97.293,11.389,97.732,11.836z"/>
</g>
</svg>
